<svg xmlns="http://www.w3.org/2000/svg" viewBox="0 0 23.88 23.88"><defs><style>.cls-1{fill:#123676;}</style></defs><title>WAV-Menu-X</title><g id="Ebene_2" data-name="Ebene 2"><g id="Ebene_1-2" data-name="Ebene 1"><path class="cls-1" d="M11.94,0A11.94,11.94,0,1,0,23.88,11.94,11.94,11.94,0,0,0,11.94,0Zm0,21.94a10,10,0,1,1,10-10A10,10,0,0,1,11.94,21.94Z"/><path class="cls-1" d="M13.58,11.94l3.58-3.58a1.16,1.16,0,1,0-1.64-1.64L11.94,10.3,8.36,6.72A1.16,1.16,0,0,0,6.71,8.36l3.59,3.58L6.72,15.52a1.16,1.16,0,1,0,1.64,1.64l3.58-3.58,3.58,3.58a1.16,1.16,0,0,0,1.64-1.64Z"/></g></g></svg>