<svg xmlns="http://www.w3.org/2000/svg" width="17.884" height="16.349" viewBox="0 0 17.884 16.349"><defs><style>.a{fill:#123676;}</style></defs><path class="a" d="M219.144,333.382a.919.919,0,1,0,0,1.838.919.919,0,0,0,0-1.838Z" transform="translate(-210.202 -321.893)"/><path class="a" d="M17.449,35.628a3.139,3.139,0,0,0,.007-3.176L11.7,22.481a3.172,3.172,0,0,0-5.507,0L.427,32.459a3.184,3.184,0,0,0,2.757,4.772h11.5A3.166,3.166,0,0,0,17.449,35.628Zm-1.25-.721a1.737,1.737,0,0,1-1.518.879H3.181a1.714,1.714,0,0,1-1.5-.86,1.74,1.74,0,0,1,0-1.754l5.765-9.978a1.731,1.731,0,0,1,3.007,0l5.761,9.978A1.717,1.717,0,0,1,16.2,34.907Z" transform="translate(0 -20.882)"/><path class="a" d="M218.435,157.2a1,1,0,0,0-.71,1c.022.29.04.585.063.875.063,1.107.125,2.191.188,3.3a.673.673,0,0,0,.688.647.687.687,0,0,0,.687-.669c0-.228,0-.437.022-.669.04-.71.085-1.419.125-2.129.022-.46.063-.919.085-1.379a1.135,1.135,0,0,0-.085-.46A.921.921,0,0,0,218.435,157.2Z" transform="translate(-209.721 -152.165)"/></svg>